<?xml version="1.0" encoding="utf-8"?>
<!-- Generator: Adobe Illustrator 16.0.0, SVG Export Plug-In . SVG Version: 6.00 Build 0)  -->
<!DOCTYPE svg PUBLIC "-//W3C//DTD SVG 1.1//EN" "http://www.w3.org/Graphics/SVG/1.1/DTD/svg11.dtd">
<svg version="1.1" id="Capa_1" xmlns="http://www.w3.org/2000/svg" xmlns:xlink="http://www.w3.org/1999/xlink" x="0px" y="0px"
	 width="841.89px" height="595.28px" viewBox="0 0 841.89 595.28" enable-background="new 0 0 841.89 595.28" xml:space="preserve">
<path fill="#63C5E6" d="M420.939,314.987v-82.55c0,0-51.27-25.311-67.772-15.439c-17.711,10.593,0,61.604,0,61.604L420.939,314.987z
	"/>
<path fill="#32B3E8" d="M336.526,380.567c0,0-13.197-80.764,0-102.826c12.296-20.557,84.418-45.322,84.418-45.322v102.825
	L336.526,380.567z"/>
<path fill="#17829B" d="M420.945,314.993v-82.55c0,0,53.887-25.311,70.391-15.439c17.711,10.593-2.619,61.604-2.619,61.604
	L420.945,314.993z"/>
<path fill="#2495B7" d="M505.363,380.567c0,0,13.195-80.764,0-102.826c-12.296-20.557-84.417-45.322-84.417-45.322v102.825
	L505.363,380.567z"/>
<path fill="none" d="M420.945,232.378"/>
<path fill="#EDEDED" d="M408.369,278.196c0.779,1.665-0.386,3.852-2.601,4.887l-52.917,24.73c-2.214,1.035-4.64,0.524-5.418-1.142
	l0,0c-0.778-1.664,0.387-3.852,2.601-4.886l52.917-24.73C405.166,276.02,407.591,276.531,408.369,278.196L408.369,278.196z"/>
<path fill="#EDEDED" d="M408.369,292.168c0.779,1.665-0.386,3.853-2.601,4.888l-52.917,24.729c-2.214,1.036-4.64,0.524-5.418-1.141
	l0,0c-0.778-1.664,0.387-3.852,2.601-4.887l52.917-24.73C405.166,289.992,407.591,290.503,408.369,292.168L408.369,292.168z"/>
<path fill="#EDEDED" d="M388.865,315.255c0.779,1.664,0.189,3.584-1.317,4.287l-35.979,16.814c-1.505,0.704-3.356-0.075-4.134-1.74
	l0,0c-0.778-1.665-0.188-3.584,1.317-4.287l35.98-16.814C386.236,312.81,388.087,313.591,388.865,315.255L388.865,315.255z"/>
<path fill="#EDEDED" d="M399.683,268.553c0.779,1.665,0.076,3.637-1.569,4.405l-39.307,18.37c-1.645,0.769-3.608,0.042-4.387-1.623
	l0,0c-0.778-1.664-0.075-3.636,1.569-4.404l39.308-18.37C396.941,266.162,398.905,266.889,399.683,268.553L399.683,268.553z"/>
</svg>
