<?xml version="1.0" encoding="utf-8"?>
<!-- Generator: Adobe Illustrator 16.0.0, SVG Export Plug-In . SVG Version: 6.00 Build 0)  -->
<!DOCTYPE svg PUBLIC "-//W3C//DTD SVG 1.1//EN" "http://www.w3.org/Graphics/SVG/1.1/DTD/svg11.dtd">
<svg version="1.1" id="Capa_1" xmlns="http://www.w3.org/2000/svg" xmlns:xlink="http://www.w3.org/1999/xlink" x="0px" y="0px"
	 width="841.89px" height="595.28px" viewBox="0 0 841.89 595.28" enable-background="new 0 0 841.89 595.28" xml:space="preserve">
<path d="M505.863,380.567c0,0,13.195-80.764,0-102.826c-12.296-20.557-84.417-45.322-84.417-45.322v102.825L505.863,380.567z"/>
<path d="M420.445,232.378"/>
<path d="M336.026,277.742c-13.197,22.062,0,102.826,0,102.826l84.418-45.322V232.42C420.445,232.42,348.322,257.185,336.026,277.742
	z M355.489,285.301l39.308-18.37c1.645-0.769,3.608-0.042,4.386,1.622c0.779,1.665,0.076,3.637-1.569,4.405l-39.307,18.37
	c-1.645,0.769-3.608,0.042-4.387-1.623C353.142,288.041,353.844,286.069,355.489,285.301z M387.047,319.542l-35.979,16.814
	c-1.505,0.704-3.356-0.075-4.134-1.74c-0.778-1.665-0.188-3.584,1.317-4.287l35.98-16.814c1.505-0.705,3.356,0.076,4.134,1.74
	C389.144,316.919,388.554,318.839,387.047,319.542z M405.268,297.055l-52.917,24.729c-2.214,1.036-4.64,0.524-5.418-1.141
	c-0.778-1.664,0.387-3.852,2.601-4.887l52.917-24.73c2.214-1.035,4.64-0.523,5.417,1.141
	C408.647,293.833,407.482,296.02,405.268,297.055z M405.268,283.083l-52.917,24.73c-2.214,1.035-4.64,0.524-5.418-1.142
	c-0.778-1.664,0.387-3.852,2.601-4.886l52.917-24.73c2.214-1.036,4.64-0.524,5.417,1.141
	C408.647,279.86,407.482,282.048,405.268,283.083z"/>
<g>
	<path d="M352.667,216.998c-11.665,6.977-7.965,31.481-4.079,47.402c22.52-15.526,62.781-30.019,70.364-32.678
		C410.432,227.681,367.503,208.124,352.667,216.998z"/>
</g>
<g>
	<path d="M491.836,217.003c-14.85-8.882-59.956,10.715-68.852,14.734c7.756,2.721,48.542,17.415,70.902,33.064
		C498.583,248.894,503.598,224.038,491.836,217.003z"/>
</g>
</svg>
