<?xml version="1.0" encoding="utf-8"?>
<!-- Generator: Adobe Illustrator 16.0.0, SVG Export Plug-In . SVG Version: 6.00 Build 0)  -->
<!DOCTYPE svg PUBLIC "-//W3C//DTD SVG 1.1//EN" "http://www.w3.org/Graphics/SVG/1.1/DTD/svg11.dtd">
<svg version="1.1" id="Capa_1" xmlns="http://www.w3.org/2000/svg" xmlns:xlink="http://www.w3.org/1999/xlink" x="0px" y="0px"
	 width="841.89px" height="595.28px" viewBox="0 0 841.89 595.28" enable-background="new 0 0 841.89 595.28" xml:space="preserve">
<path fill="#FFFFFF" d="M237.443,382.373c0,0,13.196-80.764,0-102.826c-12.296-20.557-84.417-45.322-84.417-45.322v102.825
	L237.443,382.373z"/>
<path fill="#FFFFFF" d="M152.025,234.184"/>
<path fill="#FFFFFF" d="M67.606,279.547c-13.197,22.062,0,102.826,0,102.826l84.418-45.322V234.226
	C152.025,234.226,79.902,258.99,67.606,279.547z M87.069,287.106l39.308-18.37c1.645-0.769,3.608-0.042,4.386,1.622
	c0.779,1.665,0.076,3.637-1.569,4.405l-39.307,18.37c-1.645,0.769-3.608,0.042-4.387-1.623
	C84.722,289.847,85.424,287.875,87.069,287.106z M118.627,321.348l-35.979,16.814c-1.505,0.704-3.356-0.075-4.134-1.74
	c-0.778-1.665-0.188-3.584,1.317-4.287l35.98-16.814c1.505-0.705,3.356,0.076,4.134,1.74
	C120.724,318.725,120.134,320.645,118.627,321.348z M136.848,298.861L83.932,323.59c-2.214,1.036-4.64,0.524-5.418-1.141
	c-0.778-1.664,0.387-3.852,2.601-4.887l52.917-24.73c2.214-1.035,4.64-0.523,5.417,1.141
	C140.228,295.638,139.063,297.826,136.848,298.861z M136.848,284.888l-52.917,24.73c-2.214,1.035-4.64,0.524-5.418-1.142
	c-0.778-1.664,0.387-3.852,2.601-4.886l52.917-24.73c2.214-1.036,4.64-0.524,5.417,1.141
	C140.228,281.666,139.063,283.854,136.848,284.888z"/>
<g>
	<path fill="#FFFFFF" d="M289.854,219.829c3.996-0.841,10.306-1.473,16.721-1.473c9.149,0,15.038,1.578,19.455,5.153
		c3.681,2.735,5.889,6.942,5.889,12.516c0,6.834-4.521,12.83-11.989,15.563v0.211c6.731,1.682,14.618,7.257,14.618,17.772
		c0,6.101-2.419,10.727-5.995,14.197c-4.942,4.522-12.936,6.625-24.503,6.625c-6.31,0-11.147-0.421-14.197-0.84V219.829z
		 M299.002,248.854h8.308c9.676,0,15.354-5.047,15.354-11.884c0-8.308-6.31-11.567-15.564-11.567c-4.207,0-6.625,0.315-8.098,0.631
		V248.854z M299.002,282.823c1.788,0.315,4.417,0.419,7.678,0.419c9.464,0,18.193-3.47,18.193-13.776
		c0-9.674-8.308-13.67-18.298-13.67h-7.573V282.823z"/>
	<path fill="#FFFFFF" d="M346.847,218.883h9.148v63.202h30.288v7.677h-39.436V218.883z"/>
	<path fill="#FFFFFF" d="M452.953,253.586c0,24.399-14.827,37.333-32.916,37.333c-18.72,0-31.865-14.512-31.865-35.966
		c0-22.504,13.987-37.228,32.917-37.228C440.438,217.726,452.953,232.553,452.953,253.586z M397.952,254.743
		c0,15.144,8.203,28.711,22.61,28.711c14.514,0,22.715-13.356,22.715-29.447c0-14.092-7.36-28.815-22.609-28.815
		C405.524,225.192,397.952,239.179,397.952,254.743z"/>
	<path fill="#FFFFFF" d="M518.78,286.608c-4.102,1.472-12.199,3.891-21.768,3.891c-10.73,0-19.563-2.735-26.504-9.359
		c-6.099-5.889-9.885-15.353-9.885-26.397c0.104-21.137,14.616-36.596,38.385-36.596c8.202,0,14.619,1.787,17.668,3.26l-2.208,7.468
		c-3.788-1.683-8.52-3.049-15.67-3.049c-17.248,0-28.5,10.725-28.5,28.499c0,17.982,10.831,28.604,27.343,28.604
		c5.993,0,10.095-0.842,12.198-1.893v-21.139h-14.406v-7.361h23.347V286.608z"/>
	<path fill="#FFFFFF" d="M548.22,271.57l-5.049,18.192h-16.615l21.664-70.879h21.032l21.979,70.879h-17.248l-5.468-18.192H548.22z
		 M566.201,259.58l-4.416-15.037c-1.263-4.207-2.525-9.465-3.577-13.671H558c-1.051,4.206-2.104,9.569-3.259,13.671l-4.208,15.037
		H566.201z"/>
	<path fill="#FFFFFF" d="M601.215,273.252c4.311,2.208,10.938,4.417,17.773,4.417c7.361,0,11.253-3.051,11.253-7.677
		c0-4.417-3.366-6.941-11.885-9.992c-11.776-4.1-19.454-10.621-19.454-20.927c0-12.093,10.096-21.348,26.816-21.348
		c7.992,0,13.882,1.683,18.09,3.575l-3.58,12.935c-2.837-1.366-7.886-3.364-14.825-3.364c-6.942,0-10.307,3.155-10.307,6.834
		c0,4.523,3.996,6.521,13.146,9.991c12.515,4.629,18.402,11.148,18.402,21.139c0,11.883-9.149,21.978-28.606,21.978
		c-8.095,0-16.088-2.102-20.083-4.311L601.215,273.252z"/>
	<path fill="#FFFFFF" d="M673.984,271.57l-5.051,18.192h-16.616l21.667-70.879h21.029l21.98,70.879h-17.246l-5.469-18.192H673.984z
		 M691.966,259.58l-4.416-15.037c-1.263-4.207-2.523-9.465-3.576-13.671h-0.211c-1.052,4.206-2.103,9.569-3.26,13.671l-4.206,15.037
		H691.966z"/>
	<path fill="#FFFFFF" d="M289.654,315.758c4.415-0.736,10.2-1.367,17.562-1.367c9.044,0,15.67,2.104,19.875,5.889
		c3.89,3.365,6.208,8.52,6.208,14.828c0,6.415-1.895,11.464-5.471,15.145c-4.837,5.152-12.725,7.781-21.663,7.781
		c-2.735,0-5.258-0.105-7.362-0.63v28.394h-9.147V315.758z M298.802,349.938c1.999,0.524,4.523,0.735,7.573,0.735
		c11.042,0,17.772-5.364,17.772-15.145c0-9.358-6.625-13.882-16.721-13.882c-3.996,0-7.045,0.315-8.624,0.736V349.938z"/>
	<path fill="#FFFFFF" d="M406.171,349.621c0,24.398-14.83,37.332-32.917,37.332c-18.719,0-31.866-14.512-31.866-35.965
		c0-22.505,13.988-37.229,32.918-37.229C393.654,313.76,406.171,328.587,406.171,349.621z M351.168,350.777
		c0,15.143,8.205,28.71,22.613,28.71c14.51,0,22.714-13.355,22.714-29.446c0-14.092-7.362-28.815-22.612-28.815
		C358.742,321.226,351.168,335.214,351.168,350.777z"/>
	<path fill="#FFFFFF" d="M418.046,315.863c4.626-0.946,11.253-1.473,17.563-1.473c9.781,0,16.091,1.788,20.507,5.785
		c3.577,3.154,5.574,7.992,5.574,13.461c0,9.359-5.891,15.563-13.355,18.088v0.314c5.468,1.893,8.729,6.941,10.411,14.303
		c2.313,9.885,3.997,16.721,5.469,19.455h-9.466c-1.156-1.998-2.734-8.098-4.731-16.931c-2.105-9.781-5.89-13.462-14.196-13.776
		h-8.623v30.707h-9.151V315.863z M427.197,348.148h9.357c9.78,0,15.986-5.363,15.986-13.461c0-9.15-6.626-13.146-16.302-13.25
		c-4.416,0-7.57,0.42-9.042,0.84V348.148z"/>
	<path fill="#FFFFFF" d="M489.022,322.698h-21.557v-7.781h52.477v7.781h-21.665v63.099h-9.255V322.698z"/>
	<path fill="#FFFFFF" d="M527.824,314.917h38.175v7.677h-29.023v23.557h26.815v7.571h-26.815v32.075h-9.151V314.917z"/>
	<path fill="#FFFFFF" d="M639.611,349.621c0,24.398-14.831,37.332-32.918,37.332c-18.719,0-31.866-14.512-31.866-35.965
		c0-22.505,13.989-37.229,32.918-37.229C627.094,313.76,639.611,328.587,639.611,349.621z M584.609,350.777
		c0,15.143,8.203,28.71,22.611,28.71c14.51,0,22.716-13.355,22.716-29.446c0-14.092-7.364-28.815-22.613-28.815
		C592.183,321.226,584.609,335.214,584.609,350.777z"/>
	<path fill="#FFFFFF" d="M651.484,314.917h9.152v63.202h30.286v7.678h-39.438V314.917z"/>
	<path fill="#FFFFFF" d="M710.269,314.917v70.88h-9.151v-70.88H710.269z"/>
	<path fill="#FFFFFF" d="M786.823,349.621c0,24.398-14.828,37.332-32.915,37.332c-18.72,0-31.865-14.512-31.865-35.965
		c0-22.505,13.986-37.229,32.916-37.229C774.31,313.76,786.823,328.587,786.823,349.621z M731.824,350.777
		c0,15.143,8.2,28.71,22.609,28.71c14.513,0,22.713-13.355,22.713-29.446c0-14.092-7.359-28.815-22.608-28.815
		C739.396,321.226,731.824,335.214,731.824,350.777z"/>
</g>
<path fill="#FFFFFF" d="M84.247,218.804c-11.665,6.977-7.965,31.481-4.079,47.402c22.52-15.526,62.781-30.019,70.364-32.678
	C142.012,229.486,99.083,209.93,84.247,218.804z"/>
<path fill="#FFFFFF" d="M223.416,218.809c-14.85-8.882-59.956,10.715-68.851,14.734c7.755,2.721,48.542,17.415,70.902,33.064
	C230.163,250.7,235.178,225.844,223.416,218.809z"/>
</svg>
